<svg width="1400px" height="139px" viewBox="0 0 1400 139" version="1.1" xmlns="http://www.w3.org/2000/svg" xmlns:xlink="http://www.w3.org/1999/xlink">
    <defs>
        <polygon id="path-1" points="1400 138.798856 1400 0 0 0 6.89767163e-14 138.798856"></polygon>
    </defs>
    <g id="Page-1" stroke="none" stroke-width="1" fill="none" fill-rule="evenodd">
        <g id="Desktop-HD-Copy-27" transform="translate(-20.000000, -20.000000)">
            <g id="logo-desktop" transform="translate(20.000000, 20.000000)">
                <mask id="mask-2" fill="white">
                    <use xlink:href="#path-1"></use>
                </mask>
                <g id="Clip-2"></g>
                <path d="M901.126297,15.2660466 C898.769376,14.0499926 896.264707,12.937971 893.579927,11.9524752 C885.677557,9.04940987 878.164958,7.95144667 871.042131,8.65436805 C863.917897,9.35728943 857.384652,11.4674594 851.442396,14.9820663 C845.947603,18.2323748 840.948116,22.4583381 836.725357,27.8722386 C826.10725,41.4822024 820.302892,56.7707425 818.964724,73.1923918 C818.362477,80.6082124 819.481136,87.5966568 821.729709,94.1197672 C823.982504,100.644283 827.642415,106.495401 832.712259,111.674526 C837.782102,116.856462 844.575664,120.413244 852.461148,123.903952 C888.840757,140.009287 924.200205,121.920308 935.523277,91.1365688 C946.736594,60.6536802 931.345546,26.9078305 901.126297,15.2660466 L901.126297,15.2660466 Z M1352.90097,129.428914 C1363.68653,129.428914 1372.36281,127.078345 1378.92561,122.375801 C1385.48559,117.676069 1388.76698,111.548 1388.76698,103.995813 C1388.76698,96.446437 1385.98371,90.3535144 1380.41856,85.7198567 C1374.85341,81.0861989 1365.3033,76.9853556 1351.76824,73.414515 C1336.37579,69.5723467 1325.02317,64.6631438 1317.70756,58.6911237 C1310.38915,52.7191036 1306.73064,44.6875239 1306.73064,34.5963846 C1306.73064,24.5052452 1310.9731,16.2178021 1319.45802,9.72983777 C1327.94294,3.24327926 1338.98881,0 1352.59281,0 C1366.19682,0 1377.30883,3.80983389 1385.93305,11.4295017 C1394.55446,19.0477636 1398.72797,28.521738 1398.45358,39.8472073 L1398.24814,40.3631516 L1388.04513,40.3631516 C1388.04513,31.1661282 1384.81439,23.7179733 1378.35713,18.0186867 C1371.89846,12.3222118 1363.29253,9.47256854 1352.54216,9.47256854 C1341.78756,9.47256854 1333.31953,11.8259493 1327.13666,16.5256817 C1320.95238,21.2282257 1317.86094,27.1496355 1317.86094,34.2870992 C1317.86094,41.4273746 1320.71035,47.2461578 1326.41481,51.7406371 C1332.11785,56.2379281 1342.1309,60.2867552 1356.45817,63.8913361 C1370.78121,67.4945111 1381.62024,72.4880646 1388.97242,78.8719966 C1396.32461,85.2559286 1400,93.6488099 1400,104.047829 C1400,114.448254 1395.65341,122.839729 1386.96306,129.223661 C1378.2713,135.607593 1366.95245,138.798856 1353.0051,138.798856 C1338.98881,138.798856 1327.2042,135.471226 1317.6555,128.811749 C1313.05141,125.516454 1309.42668,121.312984 1306.78271,116.198528 C1304.13592,111.085478 1302.88218,105.370727 1303.02008,99.0542753 L1303.22692,98.4357045 L1313.42993,98.4357045 C1313.42993,105.231548 1315.24933,111.033461 1318.89236,115.837226 C1325.83085,124.897883 1337.168,129.428914 1352.90097,129.428914 L1352.90097,129.428914 Z M1242.73073,136.63667 L1231.70315,136.63667 L1231.70315,86.6983232 L1182.85227,1.75027424 L1195.73442,1.75027424 L1237.2683,76.7098104 L1279.11034,1.75027424 L1291.9925,1.75027424 L1242.73073,87.3154882 L1242.73073,136.63667 Z M1157.29339,80.4170178 L1157.29339,58.2792118 C1157.29339,43.4517881 1153.56312,31.6455206 1146.11103,22.8575975 C1138.65472,14.0724861 1128.46859,9.67782158 1115.55267,9.67782158 C1102.63533,9.67782158 1092.58711,14.055616 1085.4094,22.8069872 C1078.22747,31.5597642 1074.63933,43.3843077 1074.63933,58.2792118 L1074.63933,80.4170178 C1074.63933,95.382214 1078.24436,107.240498 1085.45865,115.991869 C1092.67294,124.744646 1102.75634,129.119629 1115.70886,129.119629 C1128.65855,129.119629 1138.82779,124.744646 1146.21516,115.991869 C1153.59971,107.240498 1157.29339,95.382214 1157.29339,80.4170178 L1157.29339,80.4170178 Z M1168.31956,58.4844648 L1168.31956,80.4170178 C1168.31956,97.9914582 1163.5424,112.11596 1153.99511,122.787713 C1144.445,133.462277 1131.68245,138.798856 1115.70886,138.798856 C1099.73385,138.798856 1087.03884,133.462277 1077.62664,122.787713 C1068.21302,112.11596 1063.50762,97.9914582 1063.50762,80.4170178 L1063.50762,58.4844648 C1063.50762,40.9128361 1068.19614,26.7714637 1077.57598,16.0617536 C1086.95301,5.35344924 1099.63113,0 1115.60473,0 C1131.57973,0 1144.35917,5.35344924 1153.94304,16.0617536 C1163.52833,26.7714637 1168.31956,40.9128361 1168.31956,58.4844648 L1168.31956,58.4844648 Z M1050.21177,1.75027424 L1050.21177,11.1202163 L1003.73188,11.1202163 L1003.73188,136.63667 L992.601579,136.63667 L992.601579,11.1202163 L946.224403,11.1202163 L946.224403,1.75027424 L1050.21177,1.75027424 Z M718.433235,11.0175897 L718.433235,71.1497023 L753.885553,71.1497023 C764.741462,71.1497023 773.037825,68.4054972 778.776049,62.9128695 C784.511459,57.4216477 787.380571,50.1618756 787.380571,41.1349593 C787.380571,32.1094487 784.511459,24.8328066 778.776049,19.3064387 C773.037825,13.7814766 764.741462,11.0175897 753.885553,11.0175897 L718.433235,11.0175897 Z M718.433235,136.534043 L707.405658,136.534043 L707.405658,1.64624188 L753.885553,1.64624188 C767.969389,1.64624188 778.91254,5.18334227 786.710783,12.2519197 C794.50762,19.3247146 798.408148,28.9336499 798.408148,41.0829431 C798.408148,53.2336421 794.50762,62.8453891 786.710783,69.9139665 C778.91254,76.9853556 767.969389,80.5196443 753.885553,80.5196443 L718.433235,80.4170178 L718.433235,136.534043 Z M667.212762,80.4170178 L667.212762,58.2792118 C667.212762,43.4517881 663.483902,31.6455206 656.030402,22.8575975 C648.575495,14.0724861 638.389373,9.67782158 625.473445,9.67782158 C612.554702,9.67782158 602.506478,14.055616 595.328773,22.8069872 C588.146847,31.5597642 584.557291,43.3843077 584.557291,58.2792118 L584.557291,80.4170178 C584.557291,95.382214 588.165139,107.240498 595.379429,115.991869 C602.593719,124.744646 612.675714,129.119629 625.628228,129.119629 C638.577927,129.119629 648.747163,124.744646 656.134528,115.991869 C663.51908,107.240498 667.212762,95.382214 667.212762,80.4170178 L667.212762,80.4170178 Z M678.24034,58.4844648 L678.24034,80.4170178 C678.24034,97.9914582 673.463177,112.11596 663.914479,122.787713 C654.364375,133.462277 641.601822,138.798856 625.628228,138.798856 C609.653226,138.798856 596.959622,133.462277 587.546008,122.787713 C578.132394,112.11596 573.426994,97.9914582 573.426994,80.4170178 L573.426994,58.4844648 C573.426994,40.9128361 578.116915,26.7714637 587.495351,16.0617536 C596.873788,5.35344924 609.550506,0 625.525508,0 C641.499102,0 654.278541,5.35344924 663.863823,16.0617536 C673.447698,26.7714637 678.24034,40.9128361 678.24034,58.4844648 L678.24034,58.4844648 Z M560.13255,1.75027424 L560.13255,11.1202163 L513.652655,11.1202163 L513.652655,136.63667 L502.522358,136.63667 L502.522358,11.1202163 L456.145182,11.1202163 L456.145182,1.75027424 L560.13255,1.75027424 Z M359.370697,73.1066354 L359.370697,136.63667 L348.343119,136.63667 L348.343119,1.75027424 L359.370697,1.75027424 L359.370697,63.8393199 L377.819411,63.8393199 L430.998591,1.75027424 L443.468463,1.75027424 L443.673903,2.16218617 L387.815571,68.0610657 L447.694036,136.122131 L447.48719,136.63667 L434.295466,136.63667 L377.92213,73.1066354 L359.370697,73.1066354 Z M275.582496,129.428914 C286.36805,129.428914 295.042927,127.078345 301.607129,122.375801 C308.167109,117.676069 311.448507,111.548 311.448507,103.995813 C311.448507,96.446437 308.665229,90.3535144 303.10008,85.7198567 C297.534932,81.0861989 287.984827,76.9853556 274.449767,73.414515 C259.057312,69.5723467 247.706097,64.6631438 240.389088,58.6911237 C233.070671,52.7191036 229.412167,44.6875239 229.412167,34.5963846 C229.412167,24.5052452 233.654625,16.2178021 242.140949,9.72983777 C250.624459,3.24327926 261.670329,0 275.274338,0 C288.878347,0 299.990351,3.80983389 308.614573,11.4295017 C317.23598,19.0477636 321.409489,28.521738 321.135101,39.8472073 L320.929662,40.3631516 L310.726655,40.3631516 C310.726655,31.1661282 307.495914,23.7179733 301.038654,18.0186867 C294.579986,12.3222118 285.974057,9.47256854 275.223681,9.47256854 C264.469085,9.47256854 256.001053,11.8259493 249.81818,16.5256817 C243.6339,21.2282257 240.542464,27.1496355 240.542464,34.2870992 C240.542464,41.4273746 243.391876,47.2461578 249.096329,51.7406371 C254.799375,56.2379281 264.813828,60.2867552 279.139689,63.8913361 C293.464142,67.4945111 304.301758,72.4880646 311.653946,78.8719966 C319.006133,85.2559286 322.681523,93.6488099 322.681523,104.047829 C322.681523,114.448254 318.334938,122.839729 309.644582,129.223661 C300.952819,135.607593 289.633969,138.798856 275.686623,138.798856 C261.670329,138.798856 249.885722,135.471226 240.337025,128.811749 C235.732937,125.516454 232.108203,121.312984 229.46423,116.198528 C226.817443,111.085478 225.563701,105.370727 225.701599,99.0542753 L225.908445,98.4357045 L236.111452,98.4357045 C236.111452,105.231548 237.930854,111.033461 241.572474,115.837226 C248.512376,124.897883 259.849519,129.428914 275.582496,129.428914 L275.582496,129.428914 Z M200.761853,61.8823868 L200.761853,71.2523288 L135.730525,71.2523288 L135.730525,127.266728 L210.243009,127.266728 L210.243009,136.63667 L124.702948,136.63667 L124.702948,1.75027424 L209.728004,1.75027424 L209.728004,11.1202163 L135.730525,11.1202163 L135.730525,61.8823868 L200.761853,61.8823868 Z M39.2656054,11.1202163 L11.0275775,11.1202163 L11.0275775,127.266728 L39.2656054,127.266728 C52.6641754,127.266728 63.6551678,122.63307 72.2456183,113.365755 C80.8332546,104.098439 85.1277763,92.2584314 85.1277763,77.8429197 L85.1277763,60.2347391 C85.1277763,46.0258862 80.8149621,34.2870992 72.193555,25.0197837 C63.5693337,15.753874 52.5952267,11.1202163 39.2656054,11.1202163 L39.2656054,11.1202163 Z M39.2656054,136.63667 L0,136.63667 L0,1.75027424 L39.2656054,1.75027424 C55.8921023,1.75027424 69.5481747,7.24290192 80.2324156,18.2239397 C90.9152493,29.2091951 96.2580733,43.3154214 96.2580733,60.5440245 L96.2580733,77.8429197 C96.2580733,95.2107012 90.9152493,109.350668 80.2324156,120.265631 C69.5481747,131.179188 55.8921023,136.63667 39.2656054,136.63667 L39.2656054,136.63667 Z" id="Fill-1" fill="#1A1919" mask="url(#mask-2)"></path>
            </g>
        </g>
    </g>
</svg>