<?xml version="1.0" encoding="UTF-8"?>
<svg width="34px" height="24px" viewBox="0 0 34 24" version="1.1" xmlns="http://www.w3.org/2000/svg" xmlns:xlink="http://www.w3.org/1999/xlink">
    <!-- Generator: Sketch 47 (45396) - http://www.bohemiancoding.com/sketch -->
    <title>icon-refresh</title>
    <desc>Created with Sketch.</desc>
    <defs></defs>
    <g id="Page-1" stroke="none" stroke-width="1" fill="none" fill-rule="evenodd">
        <g id="Desktop-HD-Copy-27" transform="translate(-229.000000, -716.000000)" fill="#1A1919">
            <g id="button-refresh" transform="translate(20.000000, 690.000000)">
                <g id="button">
                    <g id="text+icon" transform="translate(53.000000, 21.000000)">
                        <g id="Group-5">
                            <path d="M182.818288,25.6147893 C179.821288,26.0457893 176.675288,22.2947893 175.950288,17.3937893 C175.225288,12.4947893 177.145288,7.98078935 180.142288,7.53678935 C180.303288,7.51278935 180.465288,7.50178935 180.627288,7.50178935 C181.558288,7.50178935 182.488288,7.89478935 183.345288,8.57978935 C181.553288,8.94178935 180.200288,10.5277893 180.200288,12.4257893 C180.200288,14.5897893 181.961288,16.3487893 184.125288,16.3487893 C185.213288,16.3487893 186.197288,15.9037893 186.908288,15.1867893 C186.944288,15.3757893 186.982288,15.5637893 187.010288,15.7567893 C187.735288,20.6557893 185.815288,25.1707893 182.818288,25.6147893 M189.483288,15.3907893 C188.528288,8.93578935 184.284288,4.40378935 179.776288,5.06378935 C175.289288,5.72878935 172.521288,11.3047893 173.477288,17.7597893 C174.370288,23.7947893 178.154288,28.1517893 182.310288,28.1517893 C182.600288,28.1517893 182.891288,28.1307893 183.184288,28.0877893 C187.672288,27.4227893 190.438288,21.8447893 189.483288,15.3907893 M165.529288,25.6147893 C162.541288,26.0457893 159.385288,22.2947893 158.661288,17.3937893 C157.936288,12.4947893 159.855288,7.98078935 162.852288,7.53678935 C163.013288,7.51278935 163.175288,7.50178935 163.337288,7.50178935 C164.267288,7.50178935 165.199288,7.89478935 166.054288,8.57978935 C164.263288,8.94278935 162.911288,10.5287893 162.911288,12.4257893 C162.911288,14.5897893 164.672288,16.3487893 166.836288,16.3487893 C167.923288,16.3487893 168.908288,15.9037893 169.619288,15.1857893 C169.655288,15.3757893 169.693288,15.5637893 169.721288,15.7567893 C170.446288,20.6557893 168.526288,25.1707893 165.529288,25.6147893 M162.486288,5.06378935 C157.999288,5.72878935 155.233288,11.3047893 156.188288,17.7597893 C157.081288,23.7947893 160.865288,28.1517893 165.021288,28.1517893 C165.311288,28.1517893 165.602288,28.1307893 165.895288,28.0877893 C170.382288,27.4227893 173.149288,21.8447893 172.194288,15.3907893 C171.239288,8.93678935 166.983288,4.40378935 162.486288,5.06378935" id="icon-refresh"></path>
                        </g>
                    </g>
                </g>
            </g>
        </g>
    </g>
</svg>